<?xml version="1.0" encoding="UTF-8" standalone="no"?>
<!-- Created with Inkscape (http://www.inkscape.org/) -->

<svg
   width="720"
   height="1280"
   viewBox="0 0 190.5 338.66667"
   version="1.1"
   id="svg1"
   inkscape:version="1.3.2 (091e20e, 2023-11-25, custom)"
   sodipodi:docname="StonePanel.svg"
   inkscape:export-filename="..\..\..\..\Godot\ReaperIdleMobile\reaperidlemobile\Assets\Panel.png"
   inkscape:export-xdpi="96"
   inkscape:export-ydpi="96"
   xmlns:inkscape="http://www.inkscape.org/namespaces/inkscape"
   xmlns:sodipodi="http://sodipodi.sourceforge.net/DTD/sodipodi-0.dtd"
   xmlns:xlink="http://www.w3.org/1999/xlink"
   xmlns="http://www.w3.org/2000/svg"
   xmlns:svg="http://www.w3.org/2000/svg">
  <sodipodi:namedview
     id="namedview1"
     pagecolor="#ffffff"
     bordercolor="#999999"
     borderopacity="1"
     inkscape:showpageshadow="2"
     inkscape:pageopacity="0"
     inkscape:pagecheckerboard="0"
     inkscape:deskcolor="#d1d1d1"
     inkscape:document-units="mm"
     inkscape:zoom="0.52724989"
     inkscape:cx="371.74024"
     inkscape:cy="628.73413"
     inkscape:window-width="1920"
     inkscape:window-height="1051"
     inkscape:window-x="2391"
     inkscape:window-y="335"
     inkscape:window-maximized="1"
     inkscape:current-layer="svg1" />
  <defs
     id="defs1">
    <inkscape:path-effect
       effect="fillet_chamfer"
       id="path-effect8"
       is_visible="true"
       lpeversion="1"
       nodesatellites_param="F,0,0,1,0,11.90625,0,1 @ F,0,0,1,0,11.90625,0,1 @ F,0,0,1,0,11.90625,0,1 @ F,0,0,1,0,11.90625,0,1"
       radius="45"
       unit="px"
       method="auto"
       mode="F"
       chamfer_steps="1"
       flexible="false"
       use_knot_distance="true"
       apply_no_radius="true"
       apply_with_radius="true"
       only_selected="false"
       hide_knots="false" />
    <inkscape:path-effect
       effect="fillet_chamfer"
       id="path-effect5"
       is_visible="true"
       lpeversion="1"
       nodesatellites_param="F,0,0,1,0,11.90625,0,1 @ F,0,0,1,0,11.90625,0,1 @ F,0,0,1,0,11.90625,0,1 @ F,0,0,1,0,11.90625,0,1"
       radius="45"
       unit="px"
       method="auto"
       mode="F"
       chamfer_steps="1"
       flexible="false"
       use_knot_distance="true"
       apply_no_radius="true"
       apply_with_radius="true"
       only_selected="false"
       hide_knots="false" />
    <inkscape:path-effect
       effect="fillet_chamfer"
       id="path-effect2"
       is_visible="true"
       lpeversion="1"
       nodesatellites_param="F,0,0,1,0,11.90625,0,1 @ F,0,0,1,0,11.90625,0,1 @ F,0,0,1,0,11.90625,0,1 @ F,0,0,1,0,11.90625,0,1"
       radius="45"
       unit="px"
       method="auto"
       mode="F"
       chamfer_steps="1"
       flexible="false"
       use_knot_distance="true"
       apply_no_radius="true"
       apply_with_radius="true"
       only_selected="false"
       hide_knots="false" />
    <clipPath
       clipPathUnits="userSpaceOnUse"
       id="clipPath9">
      <use
         x="0"
         y="0"
         xlink:href="#g8"
         id="use9" />
    </clipPath>
  </defs>
  <g
     inkscape:label="Base"
     inkscape:groupmode="layer"
     id="layer1">
    <path
       style="fill:#6b6a7a;fill-opacity:1;stroke:#5b5b5d;stroke-width:3;stroke-linecap:round;stroke-dasharray:none;stroke-opacity:1"
       id="rect1"
       width="177.99998"
       height="177.99998"
       x="6.2500076"
       y="80.333344"
       inkscape:path-effect="#path-effect2"
       sodipodi:type="rect"
       d="M 18.156258,80.333344 H 172.34374 a 11.90625,11.90625 45 0 1 11.90625,11.90625 V 246.42708 a 11.90625,11.90625 135 0 1 -11.90625,11.90625 H 18.156258 A 11.90625,11.90625 45 0 1 6.2500076,246.42708 V 92.239594 A 11.90625,11.90625 135 0 1 18.156258,80.333344 Z"
       inkscape:label="rect1" />
  </g>
  <g
     inkscape:groupmode="layer"
     id="layer3"
     inkscape:label="Mid">
    <path
       style="fill:#7b7a91;fill-opacity:1;stroke:none;stroke-width:3.0569;stroke-linecap:round;stroke-dasharray:none;stroke-opacity:1"
       id="path2"
       width="177.99998"
       height="177.99998"
       x="6.2500076"
       y="80.333344"
       inkscape:path-effect="#path-effect5"
       sodipodi:type="rect"
       d="M 18.156258,80.333344 H 172.34374 a 11.90625,11.90625 45 0 1 11.90625,11.90625 V 246.42708 a 11.90625,11.90625 135 0 1 -11.90625,11.90625 H 18.156258 A 11.90625,11.90625 45 0 1 6.2500076,246.42708 V 92.239594 A 11.90625,11.90625 135 0 1 18.156258,80.333344 Z"
       inkscape:label="rect1"
       transform="matrix(1,0,0,0.96312068,0,2.9626381)" />
  </g>
  <g
     inkscape:groupmode="layer"
     id="layer2"
     inkscape:label="Upper">
    <g
       id="g9"
       clip-path="url(#clipPath9)"
       transform="matrix(1,0,0,1.0522023,0,-4.1046194)"
       style="stroke-width:0.974878">
      <g
         inkscape:label="Clip"
         id="g8"
         style="stroke-width:0.974878">
        <path
           id="rect8"
           style="fill:#aaa7c5;fill-opacity:1;stroke-width:2.92463;stroke-linecap:round"
           d="m 18.782251,80.903219 c 1.142381,-3.50295 152.684009,-2.904734 153.645179,1.419355 0.819,3.684495 1.65047,11.152798 2.42141,20.899386 0.19189,2.42591 -13.85905,6.78666 -13.67579,9.47163 0.18117,2.65428 14.59666,3.63009 14.76721,6.49243 0.46824,7.85843 0.89238,16.41648 1.24991,25.21005 0.0609,1.49878 -5.65096,3.12986 -5.594,4.64002 0.0488,1.29341 5.86696,2.46469 5.91267,3.76331 1.40132,39.81235 1.32603,81.40065 -2.2427,83.16834 -2.88724,1.43013 -38.92578,4.82959 -56.08665,-0.45757 -6.20058,-1.91036 -101.85449,4.48863 -103.945626,0.45757 -2.082231,-4.01389 -2.931922,-33.6316 -2.450231,-66.01042 0.04717,-3.17065 12.177837,-6.80928 12.142013,-9.21368 -0.02479,-1.66406 -11.81,-6.52792 -11.715973,-9.60159 1.00681,-32.9119 3.590934,-64.162396 5.572578,-70.238831 z"
           sodipodi:nodetypes="sssssssssssssss" />
      </g>
    </g>
  </g>
  <g
     inkscape:groupmode="layer"
     id="layer4"
     inkscape:label="Highlight">
    <path
       style="fill:#c2c1d6;fill-opacity:1;stroke:none;stroke-width:3;stroke-linecap:round;stroke-dasharray:none;stroke-opacity:1"
       d="m 8.78181,83.174337 c 2.347471,-2.974929 40.143828,-3.506121 79.837773,-3.69924 43.443367,-0.211362 89.159737,0.205241 93.163877,3.699239 4.11003,3.586399 3.34553,14.914011 2.88546,18.505014 -0.59852,4.6716 -4.71737,-9.664595 -8.90726,-11.735086 -6.37095,-3.148287 -19.19454,-2.730762 -22.70726,-2.730762 -3.51272,0 -26.00343,3.115591 -31.3636,2.442286 -5.94983,-0.747373 -32.618158,-4.133101 -33.621791,-4.133101 -1.003636,0 -25.006389,2.410162 -27.349066,2.630155 -3.762133,0.353289 -13.347779,4.69489 -15.556349,4.320967 C 42.617131,92.04268 37.865217,87.083131 35.629058,86.27416 33.885217,85.643294 23.664252,86.22109 17.814529,87.025633 16.04546,87.268944 13.829342,88.019686 12.670898,88.246777 7.9774625,89.166837 8.7755606,96.508768 6.0218126,94.728226 3.3712181,93.014383 5.5048269,87.327228 8.78181,83.174337 Z"
       id="path8"
       sodipodi:nodetypes="sssssssssssssss" />
  </g>
  <path
     style="fill:none;fill-opacity:1;stroke:#5b5b5d;stroke-width:3;stroke-linecap:round;stroke-dasharray:none;stroke-opacity:1"
     id="path5"
     width="177.99998"
     height="177.99998"
     x="6.2500076"
     y="80.333344"
     inkscape:path-effect="#path-effect8"
     sodipodi:type="rect"
     d="M 18.156258,80.333344 H 172.34374 a 11.90625,11.90625 45 0 1 11.90625,11.90625 V 246.42708 a 11.90625,11.90625 135 0 1 -11.90625,11.90625 H 18.156258 A 11.90625,11.90625 45 0 1 6.2500076,246.42708 V 92.239594 A 11.90625,11.90625 135 0 1 18.156258,80.333344 Z"
     inkscape:label="rect1" />
  <path
     style="fill:#5b5b5d;fill-opacity:1;stroke:none;stroke-width:3;stroke-linecap:round;stroke-dasharray:none;stroke-opacity:1"
     d="m 6.3870966,158.43549 0.354839,13.57257 c 0,0 12.0196034,-4.99651 12.3904434,-6.6729 0.503836,-2.2776 -12.7452824,-6.89967 -12.7452824,-6.89967 z"
     id="path10"
     sodipodi:nodetypes="ccsc" />
  <path
     style="fill:#5b5b5d;fill-opacity:1;stroke:none;stroke-width:3;stroke-linecap:round;stroke-dasharray:none;stroke-opacity:1"
     d="m 184.16129,106.00806 c 0,0 -16.00593,7.5234 -16.00601,8.54841 -1.6e-4,2.00511 15.73988,1.91933 15.73988,1.91933 z"
     id="path11"
     sodipodi:nodetypes="cscc" />
  <path
     style="fill:#5b5b5d;fill-opacity:1;stroke:none;stroke-width:3;stroke-linecap:round;stroke-dasharray:none;stroke-opacity:1"
     d="m 173.69165,151.9825 c -0.15963,1.27199 10.41272,2.69727 10.41272,2.69727 l 0.43909,-5.58272 z"
     id="path12"
     sodipodi:nodetypes="cccc" />
</svg>
